<?xml version="1.0" encoding="utf-8"?>
<!-- Generator: Adobe Illustrator 23.1.0, SVG Export Plug-In . SVG Version: 6.00 Build 0)  -->
<svg version="1.1" id="Layer_1" xmlns="http://www.w3.org/2000/svg" xmlns:xlink="http://www.w3.org/1999/xlink" x="0px" y="0px"
	 viewBox="0 0 595.28 841.89" style="enable-background:new 0 0 595.28 841.89;" xml:space="preserve">
<style type="text/css">
	.st0{fill:#575756;stroke:#000000;stroke-miterlimit:10;}
	.st1{fill:#9D9D9C;stroke:#000000;stroke-miterlimit:10;}
	.st2{fill:#EDEDED;stroke:#000000;stroke-miterlimit:10;}
	.st3{fill:#DADADA;stroke:#000000;stroke-miterlimit:10;}
</style>
<path class="st0" d="M396.83,147.44H212.42c-39.3,0-71.17,31.86-71.17,71.17v372.67c0,39.3,31.86,71.17,71.17,71.17h184.41
	c39.3,0,71.17-31.86,71.17-71.17V218.61C468,179.31,436.14,147.44,396.83,147.44z"/>
<path class="st1" d="M387.22,662.44H180.78c-40.19,0-72.78-32.58-72.78-72.78V220.22c0-40.19,32.58-72.78,72.78-72.78h206.44
	c40.19,0,72.78,32.58,72.78,72.78v369.44C460,629.86,427.42,662.44,387.22,662.44z"/>
<path class="st2" d="M415.81,229.4H152.19c-15.66,0-28.35-12.69-28.35-28.35v-5.67c0-15.66,12.69-28.35,28.35-28.35h263.62
	c15.66,0,28.35,12.69,28.35,28.35v5.67C444.16,216.71,431.47,229.4,415.81,229.4z"/>
<rect x="176" y="648" class="st3" width="215" height="14.44"/>
</svg>
